<?xml version="1.0" encoding="iso-8859-1"?>
<!-- Generator: Adobe Illustrator 19.0.0, SVG Export Plug-In . SVG Version: 6.00 Build 0)  -->
<svg version="1.1" id="Layer_1" xmlns="http://www.w3.org/2000/svg" xmlns:xlink="http://www.w3.org/1999/xlink" x="0px" y="0px"
	 viewBox="0 0 512 512" style="enable-background:new 0 0 512 512;" xml:space="preserve">
<rect x="443.733" y="34.133" style="fill:#F490C0;" width="34.133" height="34.133"/>
<polygon style="fill:#FFDAAA;" points="204.8,443.733 204.8,409.6 238.933,409.6 238.933,375.467 273.067,375.467 273.067,341.333 
	307.2,341.333 307.2,307.2 341.333,307.2 341.333,273.067 375.467,273.067 375.467,238.933 409.6,238.933 409.6,204.8 
	443.733,204.8 443.733,170.667 477.867,170.667 477.867,136.533 512,136.533 512,68.267 477.867,68.267 477.867,34.133 
	443.733,34.133 443.733,0 375.467,0 375.467,34.133 375.467,34.133 341.333,34.133 341.333,68.267 307.2,68.267 307.2,102.4 
	273.067,102.4 273.067,136.533 238.933,136.533 238.933,170.667 204.8,170.667 204.8,204.8 170.667,204.8 170.667,238.933 
	136.533,238.933 136.533,273.067 102.4,273.067 102.4,307.2 68.267,307.2 68.267,341.333 34.133,341.333 34.133,375.467 
	34.133,375.467 0,375.467 0,512 512,512 512,477.867 170.667,477.867 170.667,443.733 "/>
<polygon style="fill:#FF9811;" points="477.867,68.267 477.867,34.133 443.733,34.133 443.733,0 375.467,0 375.467,34.133 
	341.333,34.133 341.333,68.267 307.2,68.267 307.2,102.4 273.067,102.4 273.067,136.533 238.933,136.533 238.933,170.667 
	204.8,170.667 204.8,204.8 170.667,204.8 170.667,238.933 136.533,238.933 136.533,273.067 102.4,273.067 102.4,307.2 68.267,307.2 
	68.267,341.333 34.133,341.333 34.133,375.467 68.267,375.467 68.267,409.6 102.4,409.6 102.4,443.733 136.533,443.733 
	136.533,477.867 170.667,477.867 170.667,443.733 204.8,443.733 204.8,409.6 238.933,409.6 238.933,375.467 273.067,375.467 
	273.067,341.333 307.2,341.333 307.2,307.2 341.333,307.2 341.333,273.067 375.467,273.067 375.467,238.933 409.6,238.933 
	409.6,204.8 443.733,204.8 443.733,170.667 477.867,170.667 477.867,136.533 512,136.533 512,68.267 "/>
<polygon style="fill:#FFFFFF;" points="512,68.267 477.867,68.267 477.867,34.133 443.733,34.133 443.733,0 375.467,0 
	375.467,34.133 341.333,34.133 341.333,68.267 375.467,68.267 375.467,102.4 409.6,102.4 409.6,136.533 443.733,136.533 
	443.733,170.667 477.867,170.667 477.867,136.533 512,136.533 "/>
<polygon style="fill:#FFDA44;" points="341.333,34.133 341.333,68.267 307.2,68.267 307.2,102.4 273.067,102.4 273.067,136.533 
	238.933,136.533 238.933,170.667 204.8,170.667 204.8,204.8 170.667,204.8 170.667,238.933 136.533,238.933 136.533,273.067 
	102.4,273.067 102.4,307.2 68.267,307.2 68.267,341.333 34.133,341.333 34.133,375.467 102.4,375.467 102.4,341.333 
	136.533,341.333 136.533,307.2 170.667,307.2 170.667,273.067 204.8,273.067 204.8,238.933 238.933,238.933 238.933,204.8 
	273.067,204.8 273.067,170.667 307.2,170.667 307.2,136.533 341.333,136.533 341.333,102.4 375.467,102.4 375.467,34.133 "/>
<rect x="34.133" y="341.333" width="34.133" height="34.133"/>
<rect x="68.267" y="307.2" width="34.133" height="34.133"/>
<rect x="102.4" y="273.067" width="34.133" height="34.133"/>
<rect x="136.533" y="238.933" width="34.133" height="34.133"/>
<rect x="170.667" y="204.8" width="34.133" height="34.133"/>
<rect x="204.8" y="170.667" width="34.133" height="34.133"/>
<rect x="238.933" y="136.533" width="34.133" height="34.133"/>
<rect x="273.067" y="102.4" width="34.133" height="34.133"/>
<rect x="307.2" y="68.267" width="34.133" height="34.133"/>
<rect x="375.467" width="68.267" height="34.133"/>
<polygon points="136.533,443.733 136.533,477.867 68.267,477.867 68.267,443.733 34.133,443.733 34.133,375.467 0,375.467 0,512 
	512,512 512,477.867 170.667,477.867 170.667,443.733 "/>
<rect x="170.667" y="409.6" width="34.133" height="34.133"/>
<rect x="204.8" y="375.467" width="34.133" height="34.133"/>
<rect x="238.933" y="341.333" width="34.133" height="34.133"/>
<rect x="273.067" y="307.2" width="34.133" height="34.133"/>
<rect x="307.2" y="273.067" width="34.133" height="34.133"/>
<rect x="341.333" y="238.933" width="34.133" height="34.133"/>
<rect x="375.467" y="204.8" width="34.133" height="34.133"/>
<rect x="409.6" y="170.667" width="34.133" height="34.133"/>
<rect x="477.867" y="68.267" width="34.133" height="68.267"/>
<rect x="375.467" y="68.267" width="34.133" height="34.133"/>
<rect x="409.6" y="102.4" width="34.133" height="34.133"/>
<rect x="341.333" y="34.133" width="34.133" height="34.133"/>
<rect x="443.733" y="136.533" width="34.133" height="34.133"/>
<rect x="68.267" y="375.467" width="34.133" height="34.133"/>
<rect x="102.4" y="409.6" width="34.133" height="34.133"/>
<rect x="443.733" y="34.133" width="34.133" height="34.133"/>
<g>
</g>
<g>
</g>
<g>
</g>
<g>
</g>
<g>
</g>
<g>
</g>
<g>
</g>
<g>
</g>
<g>
</g>
<g>
</g>
<g>
</g>
<g>
</g>
<g>
</g>
<g>
</g>
<g>
</g>
</svg>
